<svg width="300" height="300" viewBox="0 0 300 300" fill="none" xmlns="http://www.w3.org/2000/svg">
<rect width="300" height="300" rx="100" fill="url(#paint0_radial_367_681)"/>
<path d="M116.1 95.1005C113.197 86.0618 118.17 76.3769 127.207 73.4689L150.879 65.8515L193.889 199.771L153.854 212.654L116.1 95.1005Z" fill="url(#paint1_linear_367_681)"/>
<path d="M98.6014 107.863C105.502 87.1397 121.246 68.2631 151.049 65.035V200.426C141.388 217.005 123.445 234.965 98.6014 234.965V107.863Z" fill="white"/>
<mask id="mask0_367_681" style="mask-type:alpha" maskUnits="userSpaceOnUse" x="98" y="65" width="54" height="170">
<path d="M98.6014 107.863C105.502 87.1397 121.246 68.2631 151.049 65.035V200.426C141.388 217.005 123.445 234.965 98.6014 234.965V107.863Z" fill="white"/>
</mask>
<g mask="url(#mask0_367_681)">
<path d="M108.587 92.8706C106.223 85.509 110.273 77.6212 117.634 75.2527L154.048 63.5347L196.834 196.754L147.092 212.76L108.587 92.8706Z" fill="url(#paint2_linear_367_681)"/>
</g>
<path d="M151.049 107.863C157.95 87.1397 173.693 68.2631 203.497 65.035V200.426C193.835 217.005 175.893 234.965 151.049 234.965V107.863Z" fill="white"/>
<mask id="mask1_367_681" style="mask-type:alpha" maskUnits="userSpaceOnUse" x="151" y="65" width="53" height="170">
<path d="M151.049 107.863C157.95 87.1397 173.693 68.2631 203.497 65.035V200.426C193.835 217.005 175.893 234.965 151.049 234.965V107.863Z" fill="white"/>
</mask>
<g mask="url(#mask1_367_681)">
<path d="M161.035 92.8706C158.671 85.509 162.721 77.6212 170.081 75.2527L206.496 63.5347L249.281 196.753L199.539 212.76L161.035 92.8706Z" fill="url(#paint3_linear_367_681)"/>
</g>
<defs>
<radialGradient id="paint0_radial_367_681" cx="0" cy="0" r="1" gradientUnits="userSpaceOnUse" gradientTransform="translate(150 150) rotate(103.766) scale(154.436)">
<stop stop-color="#9CC2F4"/>
<stop offset="1" stop-color="#6EA1ED"/>
</radialGradient>
<linearGradient id="paint1_linear_367_681" x1="152.955" y1="65.9989" x2="194.279" y2="200.801" gradientUnits="userSpaceOnUse">
<stop offset="0.01" stop-color="white"/>
<stop offset="0.885" stop-color="#6EA1ED"/>
</linearGradient>
<linearGradient id="paint2_linear_367_681" x1="156.57" y1="63.5347" x2="198.049" y2="197.522" gradientUnits="userSpaceOnUse">
<stop offset="0.01" stop-color="white"/>
<stop offset="0.885" stop-color="#6EA1ED"/>
</linearGradient>
<linearGradient id="paint3_linear_367_681" x1="209.017" y1="63.5347" x2="250.497" y2="197.522" gradientUnits="userSpaceOnUse">
<stop offset="0.01" stop-color="white"/>
<stop offset="0.885" stop-color="#6EA1ED"/>
</linearGradient>
</defs>
</svg>
