<svg width="247" height="28" viewBox="0 0 247 28" fill="none" xmlns="http://www.w3.org/2000/svg">
<path d="M242.516 27H226.452L230.516 3.95996H246.58L245.684 8.95196H235.38L234.644 13.272H243.156L242.26 18.264H233.748L233.108 22.008H243.412L242.516 27Z" fill="#6EA1ED"/>
<path d="M215.174 21.4L221.254 3.95996H227.494L218.758 27H208.518L208.262 3.95996H214.534L214.438 21.4H215.174Z" fill="#6EA1ED"/>
<path d="M205.213 3.95996L201.181 27H195.389L199.453 3.95996H205.213Z" fill="#6EA1ED"/>
<path d="M187.733 3.95996C190.165 3.95996 191.893 4.49329 192.917 5.55996C193.685 6.37063 194.069 7.39463 194.069 8.63196C194.069 9.05863 194.027 9.50663 193.941 9.97596L193.493 12.472C193.237 13.8586 192.789 14.9786 192.149 15.832C191.531 16.6853 190.837 17.2933 190.069 17.656L192.981 27H186.517L183.829 18.392H181.845L180.533 27H174.389L178.453 3.95996H187.733ZM185.717 8.95196H183.317L182.485 14.52H184.725C185.856 14.52 186.667 14.2533 187.157 13.72C187.648 13.1653 187.893 12.44 187.893 11.544C187.893 9.81596 187.168 8.95196 185.717 8.95196Z" fill="#6EA1ED"/>
<path d="M164.383 0C167.683 0 170.039 0.825 171.45 2.475C172.483 3.725 173 5.2875 173 7.1625C173 7.8375 172.937 8.55 172.811 9.3L171.337 17.6625C170.833 20.4875 169.598 22.75 167.633 24.45C165.668 26.15 163.123 27 159.998 27H149L153.8 0H164.383ZM162.002 5.85H159.545L156.861 21.15H160.452C161.636 21.15 162.556 20.8375 163.211 20.2125C163.891 19.5625 164.357 18.5125 164.609 17.0625L165.706 10.9125C165.806 10.3625 165.857 9.8625 165.857 9.4125C165.857 7.0375 164.572 5.85 162.002 5.85Z" fill="#6EA1ED"/>
<path d="M139.393 19.992H135.585L134.337 27H128.577L132.641 3.95996H142.401C144.811 3.95996 146.529 4.51463 147.553 5.62396C148.299 6.47729 148.673 7.56529 148.673 8.88796C148.673 9.33596 148.63 9.80529 148.545 10.296L147.905 13.912C147.585 15.6826 146.646 17.144 145.089 18.296C143.531 19.4266 141.633 19.992 139.393 19.992ZM140.385 8.95196H137.505L136.449 15H139.297C141.046 15 142.059 14.2213 142.337 12.664L142.561 11.352C142.603 11.16 142.625 10.904 142.625 10.584C142.625 10.264 142.465 9.91196 142.145 9.52796C141.825 9.14396 141.238 8.95196 140.385 8.95196Z" fill="#6EA1ED"/>
<path d="M124.891 27H108.827L112.891 3.95996H128.955L128.059 8.95196H117.755L117.019 13.272H125.531L124.635 18.264H116.123L115.483 22.008H125.787L124.891 27Z" fill="#6EA1ED"/>
<path d="M105.141 27H89.0768L93.1408 3.95996H109.205L108.309 8.95196H98.0048L97.2688 13.272H105.781L104.885 18.264H96.3728L95.7328 22.008H106.037L105.141 27Z" fill="#6EA1ED"/>
<path d="M86.5125 27H71.9205L75.9845 3.95996H81.7445L78.5765 22.008H87.4085L86.5125 27Z" fill="#6EA1ED"/>
<path d="M54.9075 19.0202C54.9075 20.6964 56.1396 21.5344 58.6039 21.5344C61.0931 21.5344 62.3377 20.7814 62.3377 19.2753C62.3377 18.4737 61.9145 17.8178 61.0682 17.3077C60.2219 16.7976 59.1889 16.3725 57.9692 16.0324C56.7744 15.6923 55.5671 15.3036 54.3474 14.8664C53.1526 14.4049 52.132 13.7004 51.2857 12.753C50.4394 11.7814 50.0162 10.5789 50.0162 9.14575C50.0162 3.04858 54.0363 0 62.0763 0C65.0135 0 67.2289 0.546559 68.7224 1.63968C70.2408 2.7085 71 4.20243 71 6.12146C71 6.82591 70.9004 7.50607 70.7013 8.16194C70.5271 8.79352 70.3404 9.24291 70.1412 9.51012L69.8425 9.94737H63.2338C63.7814 9.38866 64.0552 8.68421 64.0552 7.83401C64.0552 6.25506 62.9973 5.46559 60.8815 5.46559C58.2181 5.46559 56.8864 6.2915 56.8864 7.94332C56.8864 8.76923 57.3095 9.4251 58.1558 9.91093C59.0022 10.3968 60.0227 10.7854 61.2175 11.0769C62.4372 11.3441 63.6569 11.6842 64.8766 12.0972C66.0963 12.5101 67.1293 13.2024 67.9756 14.1741C68.822 15.1215 69.2451 16.3603 69.2451 17.8907C69.2451 20.9757 68.2992 23.2713 66.4075 24.7773C64.5157 26.2591 61.6034 27 57.6705 27C53.7376 27 51.0492 26.3198 49.6055 24.9595C48.5352 23.9393 48 22.5304 48 20.7328C48 20.0526 48.0747 19.3117 48.224 18.5101L48.336 17.9271H55.0568L54.9821 18.3644C54.9324 18.6073 54.9075 18.8259 54.9075 19.0202Z" fill="#6EA1ED"/>
<path d="M38.3685 3.73608C43.5098 3.73608 46.0805 5.83742 46.0805 10.0401C46.0805 10.7441 46.0058 11.5014 45.8565 12.3121L44.7365 18.7121C44.2245 21.6774 43.1151 23.8748 41.4085 25.3041C39.7018 26.7334 37.3018 27.4481 34.2085 27.4481C31.1151 27.4481 28.9605 26.7334 27.7445 25.3041C26.9125 24.3228 26.4965 22.9681 26.4965 21.2401C26.4965 20.4721 26.5818 19.6294 26.7525 18.7121L27.8725 12.3121C28.8751 6.59475 32.3738 3.73608 38.3685 3.73608ZM35.0725 22.4881C36.1391 22.4881 36.9925 22.2108 37.6325 21.6561C38.2725 21.1014 38.7205 20.0774 38.9765 18.5841L40.0645 12.4401C40.1285 12.0134 40.1605 11.6294 40.1605 11.2881C40.1605 9.56008 39.2858 8.69608 37.5365 8.69608C35.3391 8.73875 34.0271 9.98675 33.6005 12.4401L32.5125 18.5841C32.4271 19.1174 32.3845 19.6721 32.3845 20.2481C32.3845 21.7414 33.2805 22.4881 35.0725 22.4881Z" fill="#6EA1ED"/>
<path d="M25 0L20.3812 27H13.7463L9.12757 12.225L6.6349 27H0L4.65543 0H11.4736L16.0191 13.8L18.4018 0H25Z" fill="#6EA1ED"/>
</svg>
